<mxfile host="app.diagrams.net" agent="Mozilla/5.0 (Macintosh; Intel Mac OS X 10_15_7) AppleWebKit/537.36 (KHTML, like Gecko) Chrome/131.0.0.0 Safari/537.36" version="25.0.1">
  <diagram name="第 1 页" id="M07CKibMr15xcZ0LBMMP">
    <mxGraphModel dx="2336" dy="801" grid="1" gridSize="10" guides="1" tooltips="1" connect="1" arrows="1" fold="1" page="1" pageScale="1" pageWidth="827" pageHeight="1169" math="0" shadow="0">
      <root>
        <mxCell id="0" />
        <mxCell id="1" parent="0" />
        <mxCell id="HDxxtKIRtiI7PI3QwOcX-1" value="" style="rounded=0;whiteSpace=wrap;html=1;fillColor=none;" vertex="1" parent="1">
          <mxGeometry x="-205" y="450" width="1170" height="270" as="geometry" />
        </mxCell>
        <mxCell id="HDxxtKIRtiI7PI3QwOcX-2" value="SOLReplayViewController" style="swimlane;fontStyle=0;childLayout=stackLayout;horizontal=1;startSize=30;horizontalStack=0;resizeParent=1;resizeParentMax=0;resizeLast=0;collapsible=1;marginBottom=0;whiteSpace=wrap;html=1;" vertex="1" parent="1">
          <mxGeometry x="270" y="480" width="220" height="60" as="geometry" />
        </mxCell>
        <mxCell id="HDxxtKIRtiI7PI3QwOcX-3" value="- engine: TTLiveReplayEngine" style="text;strokeColor=none;fillColor=none;align=left;verticalAlign=middle;spacingLeft=4;spacingRight=4;overflow=hidden;points=[[0,0.5],[1,0.5]];portConstraint=eastwest;rotatable=0;whiteSpace=wrap;html=1;" vertex="1" parent="HDxxtKIRtiI7PI3QwOcX-2">
          <mxGeometry y="30" width="220" height="30" as="geometry" />
        </mxCell>
        <mxCell id="HDxxtKIRtiI7PI3QwOcX-21" style="edgeStyle=orthogonalEdgeStyle;rounded=0;orthogonalLoop=1;jettySize=auto;html=1;endArrow=block;endFill=0;" edge="1" parent="1" source="HDxxtKIRtiI7PI3QwOcX-13" target="HDxxtKIRtiI7PI3QwOcX-2">
          <mxGeometry relative="1" as="geometry" />
        </mxCell>
        <mxCell id="HDxxtKIRtiI7PI3QwOcX-13" value="SOLEpisodeReplayViewController" style="swimlane;fontStyle=0;childLayout=stackLayout;horizontal=1;startSize=30;horizontalStack=0;resizeParent=1;resizeParentMax=0;resizeLast=0;collapsible=1;marginBottom=0;whiteSpace=wrap;html=1;" vertex="1" parent="1">
          <mxGeometry x="270" y="630" width="220" height="60" as="geometry" />
        </mxCell>
        <mxCell id="HDxxtKIRtiI7PI3QwOcX-16" value="@chuquan.me" style="text;html=1;align=center;verticalAlign=middle;whiteSpace=wrap;rounded=0;" vertex="1" parent="1">
          <mxGeometry x="865" y="690" width="100" height="30" as="geometry" />
        </mxCell>
      </root>
    </mxGraphModel>
  </diagram>
</mxfile>
